<svg width="5903" height="564" viewBox="0 0 5903 564" fill="none" xmlns="http://www.w3.org/2000/svg">
<rect x="-0.5" y="0.5" width="563" height="563" transform="matrix(-1 0 0 1 1313 0)" stroke="black"/>
<rect x="-0.5" y="0.5" width="563" height="563" transform="matrix(-1 0 0 1 1235 0)" stroke="black"/>
<rect x="-0.5" y="0.5" width="563" height="563" transform="matrix(-1 0 0 1 1162 0)" stroke="black"/>
<rect x="-0.5" y="0.5" width="563" height="563" transform="matrix(-1 0 0 1 1080 0)" stroke="black"/>
<rect x="-0.5" y="0.5" width="573" height="563" transform="matrix(-1 0 0 1 1003 0)" stroke="black"/>
<rect x="-0.5" y="0.5" width="743" height="563" transform="matrix(-1 0 0 1 829 0)" stroke="black"/>
<rect x="-0.5" y="0.5" width="573" height="563" transform="matrix(-1 0 0 1 1491 0)" stroke="black"/>
<rect x="-0.5" y="0.5" width="573" height="563" transform="matrix(-1 0 0 1 1973 0)" stroke="black"/>
<rect x="-0.5" y="0.5" width="573" height="563" transform="matrix(-1 0 0 1 2153 0)" stroke="black"/>
<rect x="-0.5" y="0.5" width="573" height="563" transform="matrix(-1 0 0 1 2260 0)" stroke="black"/>
<rect x="-0.5" y="0.5" width="553" height="563" transform="matrix(-1 0 0 1 2358 0)" stroke="black"/>
<rect x="-0.5" y="0.5" width="566" height="563" transform="matrix(-1 0 0 1 2457 0)" stroke="black"/>
<rect x="-0.5" y="0.5" width="607" height="563" transform="matrix(-1 0 0 1 2667 0)" stroke="black"/>
<rect x="-0.5" y="0.5" width="563" height="563" transform="matrix(-1 0 0 1 3122 0)" stroke="black"/>
<rect x="-0.5" y="0.5" width="573" height="563" transform="matrix(-1 0 0 1 3347 0)" stroke="black"/>
<rect x="-0.5" y="0.5" width="573" height="563" transform="matrix(-1 0 0 1 3471 0)" stroke="black"/>
<rect x="-0.5" y="0.5" width="573" height="563" transform="matrix(-1 0 0 1 3585 0)" stroke="black"/>
<rect x="-0.5" y="0.5" width="573" height="563" transform="matrix(-1 0 0 1 3807 0)" stroke="black"/>
<rect x="-0.5" y="0.5" width="526" height="563" transform="matrix(-1 0 0 1 4213 0)" stroke="black"/>
<rect x="-0.5" y="0.5" width="541" height="563" transform="matrix(-1 0 0 1 4481 0)" stroke="black"/>
<rect x="-0.5" y="0.5" width="546" height="563" transform="matrix(-1 0 0 1 4616 0)" stroke="black"/>
<rect x="-0.5" y="0.5" width="615" height="563" transform="matrix(-1 0 0 1 4966 0)" stroke="black"/>
<rect x="-0.5" y="0.5" width="573" height="563" transform="matrix(-1 0 0 1 5322 0)" stroke="black"/>
<rect x="-0.5" y="0.5" width="573" height="563" transform="matrix(-1 0 0 1 5429 0)" stroke="black"/>
<rect x="-0.5" y="0.5" width="573" height="563" transform="matrix(-1 0 0 1 5641 0)" stroke="black"/>
<rect x="-0.5" y="0.5" width="573" height="563" transform="matrix(-1 0 0 1 5770 0)" stroke="black"/>
<rect x="-0.5" y="0.5" width="384" height="563" transform="matrix(-1 0 0 1 5902 0)" stroke="black"/>
</svg>
