<svg width="1492" height="638" viewBox="0 0 1492 638" fill="none" xmlns="http://www.w3.org/2000/svg">
<rect x="-0.5" y="0.5" width="563" height="563" transform="matrix(-1 0 0 1 1313 74)" stroke="black"/>
<rect x="-0.5" y="0.5" width="563" height="563" transform="matrix(-1 0 0 1 1235 74)" stroke="black"/>
<rect x="-0.5" y="0.5" width="563" height="563" transform="matrix(-1 0 0 1 1162 74)" stroke="black"/>
<rect x="-0.5" y="0.5" width="563" height="563" transform="matrix(-1 0 0 1 1080 74)" stroke="black"/>
<rect x="-0.5" y="0.5" width="573" height="563" transform="matrix(-1 0 0 1 1003 74)" stroke="black"/>
<rect x="-0.5" y="0.5" width="743" height="563" transform="matrix(-1 0 0 1 829 74)" stroke="black"/>
<rect x="-0.5" y="0.5" width="573" height="563" transform="matrix(-1 0 0 1 1491 74)" stroke="black"/>
</svg>
