<svg width="1406" height="564" viewBox="0 0 1406 564" fill="none" xmlns="http://www.w3.org/2000/svg">
<rect x="-0.5" y="0.5" width="563" height="563" transform="matrix(-1 0 0 1 1227 0)" stroke="black"/>
<rect x="-0.5" y="0.5" width="563" height="563" transform="matrix(-1 0 0 1 1149 0)" stroke="black"/>
<rect x="-0.5" y="0.5" width="563" height="563" transform="matrix(-1 0 0 1 1076 0)" stroke="black"/>
<rect x="-0.5" y="0.5" width="563" height="563" transform="matrix(-1 0 0 1 994 0)" stroke="black"/>
<rect x="-0.5" y="0.5" width="573" height="563" transform="matrix(-1 0 0 1 917 0)" stroke="black"/>
<rect x="-0.5" y="0.5" width="743" height="563" transform="matrix(-1 0 0 1 743 0)" stroke="black"/>
<rect x="-0.5" y="0.5" width="573" height="563" transform="matrix(-1 0 0 1 1405 0)" stroke="black"/>
</svg>
