<svg width="1492" height="564" viewBox="0 0 1492 564" fill="none" xmlns="http://www.w3.org/2000/svg">
<rect x="-0.5" y="0.5" width="563" height="563" transform="matrix(-1 0 0 1 1313 0)" stroke="black"/>
<rect x="-0.5" y="0.5" width="563" height="563" transform="matrix(-1 0 0 1 1235 0)" stroke="black"/>
<rect x="-0.5" y="0.5" width="563" height="563" transform="matrix(-1 0 0 1 1162 0)" stroke="black"/>
<rect x="-0.5" y="0.5" width="563" height="563" transform="matrix(-1 0 0 1 1080 0)" stroke="black"/>
<rect x="-0.5" y="0.5" width="573" height="563" transform="matrix(-1 0 0 1 1003 0)" stroke="black"/>
<rect x="-0.5" y="0.5" width="743" height="563" transform="matrix(-1 0 0 1 829 0)" stroke="black"/>
<rect x="-0.5" y="0.5" width="573" height="563" transform="matrix(-1 0 0 1 1491 0)" stroke="black"/>
</svg>
